<mxfile host="app.diagrams.net" modified="2023-08-01T23:16:18.314Z" agent="Mozilla/5.0 (Windows NT 10.0; Win64; x64) AppleWebKit/537.36 (KHTML, like Gecko) Chrome/115.0.0.0 Safari/537.36" etag="sW-NI48aadZPZj6lxR7B" version="21.6.6" type="device" pages="2">
  <diagram name="Page-1" id="VRzMmlVR9n4cO8AVNFfp">
    <mxGraphModel dx="1156" dy="802" grid="1" gridSize="10" guides="1" tooltips="1" connect="1" arrows="1" fold="1" page="1" pageScale="1" pageWidth="850" pageHeight="1100" math="0" shadow="0">
      <root>
        <mxCell id="0" />
        <mxCell id="1" parent="0" />
        <mxCell id="aoP2i6qUosu2Ei9DeixX-9" value="Step 1" style="shape=step;perimeter=stepPerimeter;fixedSize=1;points=[];whiteSpace=wrap;html=1;fontStyle=1;fontSize=18;fillColor=#f5f5f5;fontColor=#333333;strokeColor=#666666;align=center;verticalAlign=middle;labelBackgroundColor=none;labelBorderColor=none;" vertex="1" parent="1">
          <mxGeometry x="240" y="210" width="130" height="57" as="geometry" />
        </mxCell>
        <mxCell id="aoP2i6qUosu2Ei9DeixX-10" value="Step 2" style="shape=step;perimeter=stepPerimeter;fixedSize=1;points=[];whiteSpace=wrap;html=1;fontStyle=1;fontSize=18;fillColor=#f5f5f5;fontColor=#333333;strokeColor=#666666;align=center;verticalAlign=middle;labelBackgroundColor=none;labelBorderColor=none;" vertex="1" parent="1">
          <mxGeometry x="400" y="210" width="130" height="57" as="geometry" />
        </mxCell>
        <mxCell id="aoP2i6qUosu2Ei9DeixX-11" value="Step 3" style="shape=step;perimeter=stepPerimeter;fixedSize=1;points=[];whiteSpace=wrap;html=1;fontStyle=1;fontSize=18;fillColor=#f5f5f5;fontColor=#333333;strokeColor=#666666;align=center;verticalAlign=middle;labelBackgroundColor=none;labelBorderColor=none;" vertex="1" parent="1">
          <mxGeometry x="560" y="210" width="130" height="57" as="geometry" />
        </mxCell>
        <mxCell id="aoP2i6qUosu2Ei9DeixX-12" value="Step 4" style="shape=step;perimeter=stepPerimeter;fixedSize=1;points=[];whiteSpace=wrap;html=1;fontStyle=1;fontSize=18;fillColor=#f5f5f5;fontColor=#333333;strokeColor=#666666;align=center;verticalAlign=middle;labelBackgroundColor=none;labelBorderColor=none;" vertex="1" parent="1">
          <mxGeometry x="720" y="210" width="130" height="57" as="geometry" />
        </mxCell>
        <mxCell id="aoP2i6qUosu2Ei9DeixX-13" value="Step 5" style="shape=step;perimeter=stepPerimeter;fixedSize=1;points=[];whiteSpace=wrap;html=1;fontStyle=1;fontSize=18;fillColor=#f5f5f5;fontColor=#333333;strokeColor=#666666;align=center;verticalAlign=middle;labelBackgroundColor=none;labelBorderColor=none;" vertex="1" parent="1">
          <mxGeometry x="880" y="210" width="130" height="57" as="geometry" />
        </mxCell>
        <mxCell id="aoP2i6qUosu2Ei9DeixX-14" value="Step 6" style="shape=step;perimeter=stepPerimeter;fixedSize=1;points=[];whiteSpace=wrap;html=1;fontStyle=1;fontSize=18;fillColor=#f5f5f5;fontColor=#333333;strokeColor=#666666;align=center;verticalAlign=middle;labelBackgroundColor=none;labelBorderColor=none;" vertex="1" parent="1">
          <mxGeometry x="1040" y="210" width="130" height="57" as="geometry" />
        </mxCell>
        <mxCell id="aoP2i6qUosu2Ei9DeixX-30" style="edgeStyle=orthogonalEdgeStyle;rounded=0;orthogonalLoop=1;jettySize=auto;html=1;exitX=0.5;exitY=1;exitDx=0;exitDy=0;entryX=0.5;entryY=0;entryDx=0;entryDy=0;strokeWidth=2;fillColor=#bac8d3;strokeColor=#23445d;align=center;verticalAlign=middle;labelBackgroundColor=none;labelBorderColor=none;" edge="1" parent="1" source="aoP2i6qUosu2Ei9DeixX-16" target="aoP2i6qUosu2Ei9DeixX-27">
          <mxGeometry relative="1" as="geometry" />
        </mxCell>
        <mxCell id="aoP2i6qUosu2Ei9DeixX-16" value="No monitoring design" style="rounded=1;whiteSpace=wrap;html=1;fontSize=18;fillColor=#bac8d3;strokeColor=#23445d;fontStyle=1;align=center;verticalAlign=middle;labelBackgroundColor=none;labelBorderColor=none;" vertex="1" parent="1">
          <mxGeometry x="69" y="240.5" width="130" height="100" as="geometry" />
        </mxCell>
        <mxCell id="aoP2i6qUosu2Ei9DeixX-23" style="edgeStyle=orthogonalEdgeStyle;rounded=0;orthogonalLoop=1;jettySize=auto;html=1;exitX=1;exitY=0.5;exitDx=0;exitDy=0;entryX=0;entryY=0.5;entryDx=0;entryDy=0;strokeWidth=2;align=center;verticalAlign=middle;labelBackgroundColor=none;labelBorderColor=none;" edge="1" parent="1" source="aoP2i6qUosu2Ei9DeixX-18" target="aoP2i6qUosu2Ei9DeixX-19">
          <mxGeometry relative="1" as="geometry" />
        </mxCell>
        <mxCell id="aoP2i6qUosu2Ei9DeixX-18" value="ANN ROM" style="rounded=1;whiteSpace=wrap;html=1;fontSize=18;fillColor=#f8cecc;strokeColor=#b85450;fontStyle=1;align=center;verticalAlign=middle;labelBackgroundColor=none;labelBorderColor=none;" vertex="1" parent="1">
          <mxGeometry x="240" y="280" width="130" height="100" as="geometry" />
        </mxCell>
        <mxCell id="aoP2i6qUosu2Ei9DeixX-24" style="edgeStyle=orthogonalEdgeStyle;rounded=0;orthogonalLoop=1;jettySize=auto;html=1;exitX=1;exitY=0.5;exitDx=0;exitDy=0;entryX=0;entryY=0.5;entryDx=0;entryDy=0;strokeWidth=2;align=center;verticalAlign=middle;labelBackgroundColor=none;labelBorderColor=none;" edge="1" parent="1" source="aoP2i6qUosu2Ei9DeixX-19" target="aoP2i6qUosu2Ei9DeixX-20">
          <mxGeometry relative="1" as="geometry" />
        </mxCell>
        <mxCell id="aoP2i6qUosu2Ei9DeixX-19" value="Monitoring realizations, &lt;font face=&quot;Garamond&quot;&gt;D&lt;/font&gt;" style="rounded=1;whiteSpace=wrap;html=1;fontSize=18;fillColor=#e1d5e7;strokeColor=#9673a6;fontStyle=1;align=center;verticalAlign=middle;labelBackgroundColor=none;labelBorderColor=none;" vertex="1" parent="1">
          <mxGeometry x="400" y="280" width="130" height="100" as="geometry" />
        </mxCell>
        <mxCell id="aoP2i6qUosu2Ei9DeixX-25" style="edgeStyle=orthogonalEdgeStyle;rounded=0;orthogonalLoop=1;jettySize=auto;html=1;exitX=1;exitY=0.5;exitDx=0;exitDy=0;entryX=0;entryY=0.5;entryDx=0;entryDy=0;strokeWidth=2;align=center;verticalAlign=middle;labelBackgroundColor=none;labelBorderColor=none;" edge="1" parent="1" source="aoP2i6qUosu2Ei9DeixX-20" target="aoP2i6qUosu2Ei9DeixX-21">
          <mxGeometry relative="1" as="geometry" />
        </mxCell>
        <mxCell id="aoP2i6qUosu2Ei9DeixX-20" value="Data assimilation" style="rounded=1;whiteSpace=wrap;html=1;fontSize=18;fillColor=#d5e8d4;strokeColor=#82b366;fontStyle=1;align=center;verticalAlign=middle;labelBackgroundColor=none;labelBorderColor=none;" vertex="1" parent="1">
          <mxGeometry x="720" y="280" width="130" height="100" as="geometry" />
        </mxCell>
        <mxCell id="aoP2i6qUosu2Ei9DeixX-26" style="edgeStyle=orthogonalEdgeStyle;rounded=0;orthogonalLoop=1;jettySize=auto;html=1;exitX=1;exitY=0.5;exitDx=0;exitDy=0;entryX=0;entryY=0.5;entryDx=0;entryDy=0;strokeWidth=2;align=center;verticalAlign=middle;labelBackgroundColor=none;labelBorderColor=none;" edge="1" parent="1" source="aoP2i6qUosu2Ei9DeixX-21" target="aoP2i6qUosu2Ei9DeixX-22">
          <mxGeometry relative="1" as="geometry" />
        </mxCell>
        <mxCell id="aoP2i6qUosu2Ei9DeixX-38" style="edgeStyle=orthogonalEdgeStyle;rounded=0;orthogonalLoop=1;jettySize=auto;html=1;exitX=0.5;exitY=1;exitDx=0;exitDy=0;entryX=0.5;entryY=0;entryDx=0;entryDy=0;strokeWidth=2;fillColor=#ffe6cc;strokeColor=#d79b00;align=center;verticalAlign=middle;labelBackgroundColor=none;labelBorderColor=none;" edge="1" parent="1" source="aoP2i6qUosu2Ei9DeixX-21" target="aoP2i6qUosu2Ei9DeixX-29">
          <mxGeometry relative="1" as="geometry">
            <mxPoint x="945" y="415" as="sourcePoint" />
          </mxGeometry>
        </mxCell>
        <mxCell id="aoP2i6qUosu2Ei9DeixX-21" value="Expected posterior uncertainty&lt;br&gt;&lt;span style=&quot;font-weight: normal;&quot;&gt;&lt;font face=&quot;Garamond&quot;&gt;E&lt;sub&gt;d&lt;/sub&gt;[U[P(M&lt;sub&gt;c&lt;/sub&gt;|D&lt;sup&gt;j&lt;/sup&gt;)]]&lt;/font&gt;&lt;/span&gt;" style="rounded=1;whiteSpace=wrap;html=1;fontSize=18;fillColor=#ffe6cc;strokeColor=#d79b00;fontStyle=1;align=center;verticalAlign=middle;labelBackgroundColor=none;labelBorderColor=none;" vertex="1" parent="1">
          <mxGeometry x="880" y="280" width="130" height="100" as="geometry" />
        </mxCell>
        <mxCell id="aoP2i6qUosu2Ei9DeixX-22" value="Repeat 2-5 for each &lt;font face=&quot;Garamond&quot;&gt;(D&lt;sup&gt;j&lt;/sup&gt;,x&lt;sup&gt;p&lt;/sup&gt;)&lt;/font&gt;" style="rounded=1;whiteSpace=wrap;html=1;fontSize=18;fillColor=#bac8d3;strokeColor=#23445d;fontStyle=1;align=center;verticalAlign=middle;labelBackgroundColor=none;labelBorderColor=none;" vertex="1" parent="1">
          <mxGeometry x="1040" y="280" width="130" height="100" as="geometry" />
        </mxCell>
        <mxCell id="aoP2i6qUosu2Ei9DeixX-67" style="edgeStyle=orthogonalEdgeStyle;rounded=0;orthogonalLoop=1;jettySize=auto;html=1;exitX=0.5;exitY=1;exitDx=0;exitDy=0;strokeWidth=2;fillColor=#bac8d3;strokeColor=#23445d;entryX=0.054;entryY=0.152;entryDx=0;entryDy=0;entryPerimeter=0;" edge="1" parent="1" source="aoP2i6qUosu2Ei9DeixX-27" target="aoP2i6qUosu2Ei9DeixX-31">
          <mxGeometry relative="1" as="geometry">
            <Array as="points">
              <mxPoint x="134" y="570" />
              <mxPoint x="210" y="570" />
              <mxPoint x="210" y="402" />
            </Array>
          </mxGeometry>
        </mxCell>
        <mxCell id="aoP2i6qUosu2Ei9DeixX-49" style="edgeStyle=orthogonalEdgeStyle;rounded=0;orthogonalLoop=1;jettySize=auto;html=1;exitX=1;exitY=0.5;exitDx=0;exitDy=0;entryX=0;entryY=0.5;entryDx=0;entryDy=0;strokeWidth=2;fillColor=#bac8d3;strokeColor=#23445d;align=center;verticalAlign=middle;labelBackgroundColor=none;labelBorderColor=none;" edge="1" parent="1" source="aoP2i6qUosu2Ei9DeixX-27" target="aoP2i6qUosu2Ei9DeixX-32">
          <mxGeometry relative="1" as="geometry" />
        </mxCell>
        <mxCell id="aoP2i6qUosu2Ei9DeixX-27" value="FEHM simulations" style="rounded=1;whiteSpace=wrap;html=1;fontSize=18;fillColor=#bac8d3;strokeColor=#23445d;fontStyle=1;align=center;verticalAlign=middle;labelBackgroundColor=none;labelBorderColor=none;" vertex="1" parent="1">
          <mxGeometry x="69" y="465" width="130" height="80" as="geometry" />
        </mxCell>
        <mxCell id="aoP2i6qUosu2Ei9DeixX-62" style="edgeStyle=orthogonalEdgeStyle;rounded=0;orthogonalLoop=1;jettySize=auto;html=1;exitX=0.5;exitY=1;exitDx=0;exitDy=0;entryX=0.5;entryY=1;entryDx=0;entryDy=0;fillColor=#ffe6cc;strokeColor=#d79b00;strokeWidth=2;" edge="1" parent="1" source="aoP2i6qUosu2Ei9DeixX-28" target="aoP2i6qUosu2Ei9DeixX-29">
          <mxGeometry relative="1" as="geometry">
            <Array as="points">
              <mxPoint x="134" y="700" />
              <mxPoint x="1020" y="700" />
            </Array>
          </mxGeometry>
        </mxCell>
        <mxCell id="aoP2i6qUosu2Ei9DeixX-28" value="Prior uncertainty&lt;br&gt;&lt;span style=&quot;font-weight: normal;&quot;&gt;&lt;font face=&quot;Garamond&quot;&gt;U[P(M&lt;sub&gt;c&lt;/sub&gt;)]&lt;/font&gt;&lt;/span&gt;" style="rounded=1;whiteSpace=wrap;html=1;fontSize=18;fillColor=#ffe6cc;strokeColor=#d79b00;fontStyle=1;align=center;verticalAlign=middle;labelBackgroundColor=none;labelBorderColor=none;" vertex="1" parent="1">
          <mxGeometry x="69" y="595" width="130" height="90" as="geometry" />
        </mxCell>
        <mxCell id="aoP2i6qUosu2Ei9DeixX-29" value="Uncertainty Reduction&lt;br&gt;&lt;span style=&quot;font-weight: normal;&quot;&gt;&lt;font face=&quot;Garamond&quot;&gt;U&lt;sub&gt;R&lt;/sub&gt;&lt;/font&gt;&lt;/span&gt;" style="rounded=1;whiteSpace=wrap;html=1;fontSize=18;fillColor=#cdeb8b;strokeColor=#36393d;fontStyle=1;align=center;verticalAlign=middle;labelBackgroundColor=none;labelBorderColor=none;" vertex="1" parent="1">
          <mxGeometry x="880" y="440" width="280" height="140" as="geometry" />
        </mxCell>
        <mxCell id="aoP2i6qUosu2Ei9DeixX-55" style="edgeStyle=orthogonalEdgeStyle;rounded=0;orthogonalLoop=1;jettySize=auto;html=1;exitX=0.5;exitY=0.88;exitDx=0;exitDy=0;exitPerimeter=0;strokeWidth=2;fillColor=#bac8d3;strokeColor=#23445d;align=center;verticalAlign=middle;labelBackgroundColor=none;labelBorderColor=none;entryX=1;entryY=0.5;entryDx=0;entryDy=0;" edge="1" parent="1" source="aoP2i6qUosu2Ei9DeixX-31" target="aoP2i6qUosu2Ei9DeixX-28">
          <mxGeometry relative="1" as="geometry">
            <mxPoint x="210" y="615" as="targetPoint" />
            <Array as="points">
              <mxPoint x="625" y="490" />
              <mxPoint x="660" y="490" />
              <mxPoint x="660" y="640" />
            </Array>
          </mxGeometry>
        </mxCell>
        <mxCell id="aoP2i6qUosu2Ei9DeixX-64" style="edgeStyle=orthogonalEdgeStyle;rounded=0;orthogonalLoop=1;jettySize=auto;html=1;exitX=0.5;exitY=0.88;exitDx=0;exitDy=0;exitPerimeter=0;entryX=0.5;entryY=1;entryDx=0;entryDy=0;fillColor=#f8cecc;strokeColor=#b85450;strokeWidth=2;" edge="1" parent="1" source="aoP2i6qUosu2Ei9DeixX-31" target="aoP2i6qUosu2Ei9DeixX-32">
          <mxGeometry relative="1" as="geometry">
            <Array as="points">
              <mxPoint x="625" y="615" />
              <mxPoint x="305" y="615" />
            </Array>
          </mxGeometry>
        </mxCell>
        <mxCell id="aoP2i6qUosu2Ei9DeixX-74" style="edgeStyle=orthogonalEdgeStyle;rounded=0;orthogonalLoop=1;jettySize=auto;html=1;exitX=0.5;exitY=0.88;exitDx=0;exitDy=0;exitPerimeter=0;entryX=0.432;entryY=0.994;entryDx=0;entryDy=0;entryPerimeter=0;strokeWidth=2;fillColor=#e1d5e7;strokeColor=#9673a6;" edge="1" parent="1" source="aoP2i6qUosu2Ei9DeixX-31" target="aoP2i6qUosu2Ei9DeixX-33">
          <mxGeometry relative="1" as="geometry">
            <Array as="points">
              <mxPoint x="580" y="508" />
              <mxPoint x="580" y="595" />
              <mxPoint x="457" y="595" />
            </Array>
          </mxGeometry>
        </mxCell>
        <mxCell id="aoP2i6qUosu2Ei9DeixX-31" value="Monte Carlo realizations&lt;br style=&quot;font-size: 18px;&quot;&gt;&lt;font face=&quot;Garamond&quot;&gt;1, 2, ..., l&lt;sub&gt;d&lt;/sub&gt;&lt;/font&gt;" style="strokeWidth=2;html=1;shape=mxgraph.flowchart.multi-document;whiteSpace=wrap;fillColor=#dae8fc;strokeColor=#6c8ebf;fontStyle=1;fontSize=18;align=center;verticalAlign=middle;labelBackgroundColor=none;labelBorderColor=none;" vertex="1" parent="1">
          <mxGeometry x="549" y="380" width="152" height="145" as="geometry" />
        </mxCell>
        <mxCell id="aoP2i6qUosu2Ei9DeixX-32" value="Pre-train ROMs to predict &lt;font face=&quot;Garamond&quot;&gt;M&lt;sub&gt;c&lt;/sub&gt;&lt;/font&gt; from &lt;font face=&quot;Garamond&quot;&gt;m&lt;/font&gt; based on FEHM simulations" style="rounded=1;whiteSpace=wrap;html=1;fontSize=18;fillColor=#f8cecc;strokeColor=#b85450;fontStyle=0;align=center;verticalAlign=middle;labelBackgroundColor=none;labelBorderColor=none;" vertex="1" parent="1">
          <mxGeometry x="245" y="435" width="120" height="140" as="geometry" />
        </mxCell>
        <mxCell id="aoP2i6qUosu2Ei9DeixX-33" value="Generate an ensemble of monitoring data, &lt;font face=&quot;Garamond&quot;&gt;D&lt;sup&gt;j&lt;/sup&gt;&lt;/font&gt;" style="rounded=1;whiteSpace=wrap;html=1;fontSize=18;fillColor=#e1d5e7;strokeColor=#9673a6;fontStyle=0;align=center;verticalAlign=middle;labelBackgroundColor=none;labelBorderColor=none;" vertex="1" parent="1">
          <mxGeometry x="405" y="435" width="120" height="140" as="geometry" />
        </mxCell>
        <mxCell id="aoP2i6qUosu2Ei9DeixX-34" value="Filter Monte Carlo samples based on monitoring data, &lt;font face=&quot;Garamond&quot;&gt;D&lt;sup&gt;j&lt;/sup&gt;&lt;/font&gt;" style="rounded=1;whiteSpace=wrap;html=1;fontSize=18;fillColor=#d5e8d4;strokeColor=#82b366;fontStyle=0;align=center;verticalAlign=middle;labelBackgroundColor=none;labelBorderColor=none;" vertex="1" parent="1">
          <mxGeometry x="725" y="435" width="120" height="140" as="geometry" />
        </mxCell>
        <mxCell id="aoP2i6qUosu2Ei9DeixX-44" value="" style="endArrow=none;html=1;rounded=0;entryX=0.5;entryY=1;entryDx=0;entryDy=0;exitX=0.5;exitY=0;exitDx=0;exitDy=0;strokeWidth=2;fillColor=#f8cecc;strokeColor=#b85450;align=center;verticalAlign=middle;labelBackgroundColor=none;labelBorderColor=none;" edge="1" parent="1" source="aoP2i6qUosu2Ei9DeixX-32" target="aoP2i6qUosu2Ei9DeixX-18">
          <mxGeometry width="50" height="50" relative="1" as="geometry">
            <mxPoint x="590" y="595" as="sourcePoint" />
            <mxPoint x="305" y="415" as="targetPoint" />
          </mxGeometry>
        </mxCell>
        <mxCell id="aoP2i6qUosu2Ei9DeixX-45" value="" style="endArrow=none;html=1;rounded=0;entryX=0.5;entryY=1;entryDx=0;entryDy=0;exitX=0.5;exitY=0;exitDx=0;exitDy=0;strokeWidth=2;fillColor=#e1d5e7;strokeColor=#9673a6;align=center;verticalAlign=middle;labelBackgroundColor=none;labelBorderColor=none;" edge="1" parent="1" source="aoP2i6qUosu2Ei9DeixX-33" target="aoP2i6qUosu2Ei9DeixX-19">
          <mxGeometry width="50" height="50" relative="1" as="geometry">
            <mxPoint x="310" y="445" as="sourcePoint" />
            <mxPoint x="465" y="415" as="targetPoint" />
          </mxGeometry>
        </mxCell>
        <mxCell id="aoP2i6qUosu2Ei9DeixX-46" value="" style="endArrow=none;html=1;rounded=0;entryX=0.5;entryY=1;entryDx=0;entryDy=0;exitX=0.5;exitY=0;exitDx=0;exitDy=0;strokeWidth=2;fillColor=#d5e8d4;strokeColor=#82b366;align=center;verticalAlign=middle;labelBackgroundColor=none;labelBorderColor=none;" edge="1" parent="1" source="aoP2i6qUosu2Ei9DeixX-34" target="aoP2i6qUosu2Ei9DeixX-20">
          <mxGeometry width="50" height="50" relative="1" as="geometry">
            <mxPoint x="320" y="455" as="sourcePoint" />
            <mxPoint x="785" y="415" as="targetPoint" />
          </mxGeometry>
        </mxCell>
        <mxCell id="aoP2i6qUosu2Ei9DeixX-56" value="" style="line;strokeWidth=2;html=1;" vertex="1" parent="1">
          <mxGeometry x="370" y="233.5" width="50" height="10" as="geometry" />
        </mxCell>
        <mxCell id="aoP2i6qUosu2Ei9DeixX-57" value="" style="line;strokeWidth=2;html=1;" vertex="1" parent="1">
          <mxGeometry x="530" y="233.5" width="50" height="10" as="geometry" />
        </mxCell>
        <mxCell id="aoP2i6qUosu2Ei9DeixX-58" value="" style="line;strokeWidth=2;html=1;" vertex="1" parent="1">
          <mxGeometry x="690" y="233.5" width="50" height="10" as="geometry" />
        </mxCell>
        <mxCell id="aoP2i6qUosu2Ei9DeixX-59" value="" style="line;strokeWidth=2;html=1;" vertex="1" parent="1">
          <mxGeometry x="850" y="233.5" width="50" height="10" as="geometry" />
        </mxCell>
        <mxCell id="aoP2i6qUosu2Ei9DeixX-71" style="edgeStyle=orthogonalEdgeStyle;rounded=0;orthogonalLoop=1;jettySize=auto;html=1;exitX=0.5;exitY=0;exitDx=0;exitDy=0;entryX=0.467;entryY=-0.013;entryDx=0;entryDy=0;entryPerimeter=0;strokeWidth=2;" edge="1" parent="1" source="aoP2i6qUosu2Ei9DeixX-68" target="aoP2i6qUosu2Ei9DeixX-10">
          <mxGeometry relative="1" as="geometry">
            <Array as="points">
              <mxPoint x="1032" y="180" />
              <mxPoint x="461" y="180" />
            </Array>
          </mxGeometry>
        </mxCell>
        <mxCell id="aoP2i6qUosu2Ei9DeixX-80" value="&lt;span style=&quot;white-space: pre;&quot;&gt;&#x9;&lt;/span&gt;Repeat for each &lt;font face=&quot;Garamond&quot;&gt;D&lt;sup&gt;j&lt;/sup&gt;, x&lt;sup&gt;p&lt;span style=&quot;white-space: pre;&quot;&gt;&#x9;&lt;/span&gt;&lt;/sup&gt;&lt;/font&gt;" style="edgeLabel;html=1;align=center;verticalAlign=middle;resizable=0;points=[];fontSize=14;labelBorderColor=#23445D;labelBackgroundColor=#BAC8D3;" vertex="1" connectable="0" parent="aoP2i6qUosu2Ei9DeixX-71">
          <mxGeometry x="0.0444" y="-1" relative="1" as="geometry">
            <mxPoint as="offset" />
          </mxGeometry>
        </mxCell>
        <mxCell id="aoP2i6qUosu2Ei9DeixX-68" value="" style="rhombus;whiteSpace=wrap;html=1;fillColor=#f5f5f5;fontColor=#333333;strokeColor=#666666;" vertex="1" parent="1">
          <mxGeometry x="1019" y="225.25" width="26" height="26.5" as="geometry" />
        </mxCell>
        <mxCell id="aoP2i6qUosu2Ei9DeixX-72" value="" style="endArrow=none;html=1;rounded=0;entryX=1.002;entryY=0.5;entryDx=0;entryDy=0;entryPerimeter=0;exitX=0;exitY=0.5;exitDx=0;exitDy=0;strokeWidth=2;" edge="1" parent="1" source="aoP2i6qUosu2Ei9DeixX-68" target="aoP2i6qUosu2Ei9DeixX-13">
          <mxGeometry width="50" height="50" relative="1" as="geometry">
            <mxPoint x="980" y="280" as="sourcePoint" />
            <mxPoint x="1030" y="230" as="targetPoint" />
          </mxGeometry>
        </mxCell>
        <mxCell id="aoP2i6qUosu2Ei9DeixX-73" value="" style="endArrow=none;html=1;rounded=0;entryX=1;entryY=0.5;entryDx=0;entryDy=0;exitX=0.154;exitY=0.498;exitDx=0;exitDy=0;exitPerimeter=0;strokeWidth=2;" edge="1" parent="1" source="aoP2i6qUosu2Ei9DeixX-14" target="aoP2i6qUosu2Ei9DeixX-68">
          <mxGeometry width="50" height="50" relative="1" as="geometry">
            <mxPoint x="1028" y="249" as="sourcePoint" />
            <mxPoint x="1020" y="248" as="targetPoint" />
          </mxGeometry>
        </mxCell>
        <mxCell id="aoP2i6qUosu2Ei9DeixX-83" value="" style="endArrow=classic;startArrow=classic;html=1;rounded=0;entryX=0.5;entryY=1;entryDx=0;entryDy=0;exitX=0.804;exitY=0;exitDx=0;exitDy=0;exitPerimeter=0;fillColor=#bac8d3;strokeColor=#23445d;strokeWidth=2;" edge="1" parent="1" source="aoP2i6qUosu2Ei9DeixX-29" target="aoP2i6qUosu2Ei9DeixX-22">
          <mxGeometry width="50" height="50" relative="1" as="geometry">
            <mxPoint x="580" y="400" as="sourcePoint" />
            <mxPoint x="630" y="350" as="targetPoint" />
          </mxGeometry>
        </mxCell>
      </root>
    </mxGraphModel>
  </diagram>
  <diagram id="3IzdVcKgZM5AJNRon12f" name="Page-2">
    <mxGraphModel dx="1560" dy="1083" grid="1" gridSize="10" guides="1" tooltips="1" connect="1" arrows="1" fold="1" page="1" pageScale="1" pageWidth="850" pageHeight="1100" math="0" shadow="0">
      <root>
        <mxCell id="0" />
        <mxCell id="1" parent="0" />
      </root>
    </mxGraphModel>
  </diagram>
</mxfile>
